# xmcd
#
# Track frame offsets:
#	150
#	23940
#	82488
#	93610
#	95004
#	138781
#	169812
#	183203
#	224588
#
# Disc length: 3471 seconds
#
# Revision: 1
# Processed by: cddbd v1.5.2PL0 Copyright (c) Steve Scherf et al.
# Submitted via: audiograbber 1.83.01
#
DISCID=800d8d09
DTITLE=Grateful Dead - 69-04-18 Memorial Union Ballroom, Lafayette In
DYEAR=1900
DGENRE=
TTITLE0=Hard To Handle
TTITLE1=Morning Dew
TTITLE2=Cryptical Envelopment
TTITLE3=Drums
TTITLE4=The Other One
TTITLE5=Cryptical Envelopment
TTITLE6=Sitting On Top Of The World
TTITLE7=King Bee
TTITLE8=Doin' That Rag
EXTD=
EXTT0=
EXTT1=
EXTT2=
EXTT3=
EXTT4=
EXTT5=
EXTT6=
EXTT7=
EXTT8=
PLAYORDER=
